<mxfile host="app.diagrams.net" modified="2023-05-21T09:52:22.868Z" agent="Mozilla/5.0 (Windows NT 10.0; Win64; x64) AppleWebKit/537.36 (KHTML, like Gecko) Chrome/113.0.0.0 Safari/537.36" etag="l3RyzEkOClhGtiRiCPLu" version="21.3.2" type="device">
  <diagram name="Page-1" id="03018318-947c-dd8e-b7a3-06fadd420f32">
    <mxGraphModel dx="1477" dy="727" grid="1" gridSize="10" guides="1" tooltips="1" connect="1" arrows="1" fold="1" page="1" pageScale="1" pageWidth="1400" pageHeight="850" background="#ffffff" math="0" shadow="0">
      <root>
        <mxCell id="0" />
        <mxCell id="1" parent="0" />
        <mxCell id="677b7b8949515195-1" value="" style="whiteSpace=wrap;html=1;rounded=0;shadow=0;labelBackgroundColor=none;strokeColor=#000000;strokeWidth=1;fillColor=none;fontFamily=Verdana;fontSize=12;fontColor=#000000;align=center;comic=1;" parent="1" vertex="1">
          <mxGeometry x="20" y="20" width="1060" height="810" as="geometry" />
        </mxCell>
        <mxCell id="677b7b8949515195-2" value="LOGO" style="whiteSpace=wrap;html=1;rounded=0;shadow=0;labelBackgroundColor=none;strokeWidth=1;fontFamily=Verdana;fontSize=28;align=center;comic=1;" parent="1" vertex="1">
          <mxGeometry x="40" y="60" width="190" height="50" as="geometry" />
        </mxCell>
        <mxCell id="677b7b8949515195-9" value="" style="line;strokeWidth=1;html=1;rounded=0;shadow=0;labelBackgroundColor=none;fillColor=none;fontFamily=Verdana;fontSize=14;fontColor=#000000;align=center;comic=1;" parent="1" vertex="1">
          <mxGeometry x="20" y="140" width="1060" height="10" as="geometry" />
        </mxCell>
        <mxCell id="677b7b8949515195-10" value="" style="whiteSpace=wrap;html=1;rounded=0;shadow=0;labelBackgroundColor=none;strokeWidth=1;fillColor=none;fontFamily=Verdana;fontSize=12;align=center;comic=1;" parent="1" vertex="1">
          <mxGeometry x="30" y="160" width="1040" height="80" as="geometry" />
        </mxCell>
        <mxCell id="677b7b8949515195-11" value="check medication interaction" style="text;html=1;points=[];align=left;verticalAlign=top;spacingTop=-4;fontSize=14;fontFamily=Verdana" parent="1" vertex="1">
          <mxGeometry x="40" y="175" width="40" height="20" as="geometry" />
        </mxCell>
        <mxCell id="677b7b8949515195-12" value="Assess an allergy" style="text;html=1;points=[];align=left;verticalAlign=top;spacingTop=-4;fontSize=14;fontFamily=Verdana" parent="1" vertex="1">
          <mxGeometry x="490" y="210" width="140" height="20" as="geometry" />
        </mxCell>
        <mxCell id="677b7b8949515195-14" value="login options" style="text;html=1;points=[];align=left;verticalAlign=top;spacingTop=-4;fontSize=14;fontFamily=Verdana" parent="1" vertex="1">
          <mxGeometry x="970" y="175" width="60" height="20" as="geometry" />
        </mxCell>
        <mxCell id="677b7b8949515195-15" value="&lt;div style=&quot;text-align: justify&quot;&gt;At drug consultancy, your health is our ultimate focus&lt;/div&gt;" style="whiteSpace=wrap;html=1;rounded=0;shadow=0;labelBackgroundColor=none;strokeWidth=1;fillColor=none;fontFamily=Verdana;fontSize=12;align=center;verticalAlign=top;spacing=10;comic=1;" parent="1" vertex="1">
          <mxGeometry x="80" y="660" width="940" height="100" as="geometry" />
        </mxCell>
        <mxCell id="677b7b8949515195-16" value="" style="verticalLabelPosition=bottom;shadow=0;dashed=0;align=center;html=1;verticalAlign=top;strokeWidth=1;shape=mxgraph.mockup.graphics.simpleIcon;strokeColor=#999999;rounded=0;labelBackgroundColor=none;fontFamily=Verdana;fontSize=14;fontColor=#000000;comic=1;" parent="1" vertex="1">
          <mxGeometry x="80" y="270" width="940" height="380" as="geometry" />
        </mxCell>
        <mxCell id="677b7b8949515195-42" value="External Links" style="text;html=1;points=[];align=left;verticalAlign=top;spacingTop=-4;fontSize=14;fontFamily=Verdana" parent="1" vertex="1">
          <mxGeometry x="490" y="770" width="170" height="13" as="geometry" />
        </mxCell>
        <mxCell id="29OP2wmRGH6S1slDclZZ-21" value="&lt;div style=&quot;text-align: justify&quot;&gt;&lt;br&gt;&lt;/div&gt;" style="whiteSpace=wrap;html=1;rounded=0;shadow=0;labelBackgroundColor=none;strokeWidth=1;fillColor=none;fontFamily=Verdana;fontSize=12;align=center;verticalAlign=top;spacing=10;comic=1;" parent="1" vertex="1">
          <mxGeometry x="80" y="770" width="940" height="50" as="geometry" />
        </mxCell>
        <mxCell id="m6ImM0HUmPenZWyBpw_--3" value="Pharmacist" style="whiteSpace=wrap;html=1;rounded=0;shadow=0;labelBackgroundColor=none;strokeWidth=1;fontFamily=Verdana;fontSize=28;align=center;comic=1;" parent="1" vertex="1">
          <mxGeometry x="240" y="60" width="190" height="50" as="geometry" />
        </mxCell>
        <mxCell id="m6ImM0HUmPenZWyBpw_--4" value="Mr Arsene Wasumba" style="whiteSpace=wrap;html=1;rounded=0;shadow=0;labelBackgroundColor=none;strokeWidth=1;fillColor=none;fontFamily=Verdana;fontSize=12;align=center;comic=1;" parent="1" vertex="1">
          <mxGeometry x="850" y="70" width="210" height="30" as="geometry" />
        </mxCell>
        <mxCell id="m6ImM0HUmPenZWyBpw_--5" value="view profile" style="text;html=1;points=[];align=left;verticalAlign=top;spacingTop=-4;fontSize=14;fontFamily=Verdana" parent="1" vertex="1">
          <mxGeometry x="870" y="175" width="40" height="20" as="geometry" />
        </mxCell>
        <mxCell id="m6ImM0HUmPenZWyBpw_--8" value="4" style="ellipse;whiteSpace=wrap;html=0;" parent="1" vertex="1">
          <mxGeometry x="30" y="250" width="20" height="20" as="geometry" />
        </mxCell>
        <mxCell id="m6ImM0HUmPenZWyBpw_--9" value="5" style="ellipse;whiteSpace=wrap;html=0;" parent="1" vertex="1">
          <mxGeometry x="50" y="370" width="20" height="20" as="geometry" />
        </mxCell>
        <mxCell id="m6ImM0HUmPenZWyBpw_--10" value="6" style="ellipse;whiteSpace=wrap;html=0;" parent="1" vertex="1">
          <mxGeometry x="50" y="680" width="20" height="20" as="geometry" />
        </mxCell>
        <mxCell id="m6ImM0HUmPenZWyBpw_--11" value="7" style="ellipse;whiteSpace=wrap;html=0;" parent="1" vertex="1">
          <mxGeometry x="50" y="780" width="20" height="20" as="geometry" />
        </mxCell>
        <mxCell id="m6ImM0HUmPenZWyBpw_--12" value="2" style="ellipse;whiteSpace=wrap;html=0;" parent="1" vertex="1">
          <mxGeometry x="440" y="70" width="20" height="20" as="geometry" />
        </mxCell>
        <mxCell id="m6ImM0HUmPenZWyBpw_--13" value="3" style="ellipse;whiteSpace=wrap;html=0;" parent="1" vertex="1">
          <mxGeometry x="820" y="75" width="20" height="20" as="geometry" />
        </mxCell>
        <mxCell id="m6ImM0HUmPenZWyBpw_--14" value="1" style="ellipse;whiteSpace=wrap;html=0;" parent="1" vertex="1">
          <mxGeometry x="130" y="30" width="20" height="20" as="geometry" />
        </mxCell>
        <mxCell id="wYLvsmhgvStaaHO1u1rF-2" value="review drug use" style="text;html=1;points=[];align=left;verticalAlign=top;spacingTop=-4;fontSize=14;fontFamily=Verdana" vertex="1" parent="1">
          <mxGeometry x="300" y="175" width="140" height="20" as="geometry" />
        </mxCell>
        <mxCell id="wYLvsmhgvStaaHO1u1rF-3" value="check drug suitability" style="text;html=1;points=[];align=left;verticalAlign=top;spacingTop=-4;fontSize=14;fontFamily=Verdana" vertex="1" parent="1">
          <mxGeometry x="490" y="175" width="140" height="20" as="geometry" />
        </mxCell>
        <mxCell id="wYLvsmhgvStaaHO1u1rF-5" value="confirm drug use" style="text;html=1;points=[];align=left;verticalAlign=top;spacingTop=-4;fontSize=14;fontFamily=Verdana" vertex="1" parent="1">
          <mxGeometry x="690" y="175" width="140" height="20" as="geometry" />
        </mxCell>
        <mxCell id="wYLvsmhgvStaaHO1u1rF-6" value="check expriation date" style="text;html=1;points=[];align=left;verticalAlign=top;spacingTop=-4;fontSize=14;fontFamily=Verdana" vertex="1" parent="1">
          <mxGeometry x="40" y="210" width="40" height="20" as="geometry" />
        </mxCell>
        <mxCell id="wYLvsmhgvStaaHO1u1rF-7" value="Assess problem" style="text;html=1;points=[];align=left;verticalAlign=top;spacingTop=-4;fontSize=14;fontFamily=Verdana" vertex="1" parent="1">
          <mxGeometry x="300" y="210" width="140" height="20" as="geometry" />
        </mxCell>
        <mxCell id="wYLvsmhgvStaaHO1u1rF-8" value="&lt;div style=&quot;text-align: left;&quot;&gt;&lt;span style=&quot;background-color: initial;&quot;&gt;&lt;font style=&quot;font-size: 16px;&quot;&gt;&lt;font style=&quot;&quot;&gt;NB: view profile is a list with options.&lt;/font&gt;&lt;font style=&quot;&quot;&gt;&amp;nbsp;&lt;/font&gt;&lt;/font&gt;&lt;/span&gt;&lt;/div&gt;&lt;font size=&quot;3&quot; style=&quot;&quot;&gt;&lt;div style=&quot;text-align: left;&quot;&gt;&lt;span style=&quot;background-color: initial;&quot;&gt;The command review drug of the navigation pane contains a link to &quot;update physician&quot;&lt;/span&gt;&lt;/div&gt;&lt;/font&gt;" style="text;strokeColor=none;align=center;fillColor=none;html=1;verticalAlign=middle;whiteSpace=wrap;rounded=0;" vertex="1" parent="1">
          <mxGeometry x="1142.5" y="540" width="215" height="120" as="geometry" />
        </mxCell>
        <mxCell id="wYLvsmhgvStaaHO1u1rF-10" value="&lt;ol&gt;&lt;li&gt;&lt;font style=&quot;font-size: 16px;&quot;&gt;The logo for the drug provider company. It is a static element.&lt;/font&gt;&lt;/li&gt;&lt;li&gt;&lt;font size=&quot;3&quot; style=&quot;&quot;&gt;The status for the user who is logged in. It is a dynamic element&lt;/font&gt;&lt;/li&gt;&lt;li&gt;&lt;font size=&quot;3&quot; style=&quot;&quot;&gt;The name of the logged-in user. It is a dynamic element&lt;/font&gt;&lt;/li&gt;&lt;li&gt;&lt;font size=&quot;3&quot; style=&quot;&quot;&gt;The navigation pane for the logged-in the user which shows the use cases. It is a dynamic element that depends on the type of the user&lt;/font&gt;&lt;/li&gt;&lt;li&gt;&lt;font size=&quot;3&quot; style=&quot;&quot;&gt;The main wizard for the information architecture. It is a description of the use cases for each logged-in user.&lt;/font&gt;&lt;/li&gt;&lt;li&gt;&lt;font size=&quot;3&quot; style=&quot;&quot;&gt;An advertisement section for the drug dispensing company. It is a static element.&lt;/font&gt;&lt;/li&gt;&lt;li&gt;&lt;font size=&quot;3&quot; style=&quot;&quot;&gt;A section for external hyperlinks. It is a static element&lt;/font&gt;&lt;/li&gt;&lt;/ol&gt;" style="text;strokeColor=none;align=left;fillColor=none;html=1;verticalAlign=middle;whiteSpace=wrap;rounded=0;" vertex="1" parent="1">
          <mxGeometry x="1127.5" y="20" width="230" height="510" as="geometry" />
        </mxCell>
      </root>
    </mxGraphModel>
  </diagram>
</mxfile>
